<svg width="449" height="449" viewBox="0 0 449 449" fill="none" xmlns="http://www.w3.org/2000/svg">
<rect width="449" height="449" fill="#1E1E1E"/>
<path d="M224.5 314C214.326 314 204.809 311.872 195.948 307.617C187.251 303.361 180.195 297.141 174.78 288.957C169.529 280.773 166.903 271.035 166.903 259.741V189.032C166.903 186.577 166.329 184.449 165.18 182.648C164.196 180.684 162.801 179.211 160.996 178.229C159.191 177.247 157.14 176.756 154.843 176.756C152.545 176.756 150.494 177.247 148.689 178.229C146.884 179.211 145.407 180.684 144.259 182.648C143.11 184.449 142.536 186.577 142.536 189.032V311.054H97L97 190.75C97 179.62 99.6255 169.963 104.876 161.779C110.127 153.595 117.101 147.294 125.798 142.874C134.659 138.291 144.341 136 154.843 136C165.345 136 174.944 138.291 183.641 142.874C192.338 147.294 199.312 153.595 204.563 161.779C209.814 169.963 212.439 179.62 212.439 190.75V261.459C212.439 263.751 213.014 265.879 214.162 267.843C215.311 269.643 216.788 271.116 218.593 272.262C220.398 273.244 222.367 273.735 224.5 273.735C226.633 273.735 228.602 273.244 230.407 272.262C232.376 271.116 233.935 269.643 235.084 267.843C236.233 265.879 236.807 263.751 236.807 261.459V190.75C236.807 179.62 239.432 169.963 244.683 161.779C249.934 153.595 256.908 147.294 265.605 142.874C274.466 138.291 284.148 136 294.65 136C304.987 136 314.505 138.291 323.202 142.874C331.899 147.294 338.873 153.595 344.124 161.779C349.375 169.963 352 179.62 352 190.75V311.054H306.71V188.541C306.71 186.249 306.136 184.203 304.987 182.403C303.839 180.602 302.362 179.211 300.557 178.229C298.752 177.247 296.783 176.756 294.65 176.756C292.352 176.756 290.219 177.247 288.25 178.229C286.445 179.211 284.968 180.602 283.82 182.403C282.835 184.203 282.343 186.249 282.343 188.541V259.741C282.343 271.035 279.635 280.773 274.22 288.957C268.805 297.141 261.749 303.361 253.052 307.617C244.355 311.872 234.838 314 224.5 314Z" fill="white"/>
</svg>
